<?xml version="1.0" encoding="UTF-8"?>
<svg id="Layer_1" data-name="Layer 1" xmlns="http://www.w3.org/2000/svg" viewBox="0 0 121.63 124.56">
  <defs>
    <style>
      .cls-1 {
        fill: #0b61ae;
        stroke-width: 0px;
      }
    </style>
  </defs>
  <path class="cls-1" d="M103.6,62.26l-9.01,9.01h0c-3.1,3.1-6.87,5.54-11.08,7.07-1.68.62-3.43,1.08-5.23,1.39-2.41.42-4.94.54-7.52.34-.91-.07-1.81-.18-2.69-.33-1.67-.28-3.29-.71-4.84-1.27-8.65-3.03-15.55-9.93-18.58-18.58,1.24-.32,2.52-.49,3.84-.49,3.04,0,5.95.88,8.42,2.54.6.8,1.26,1.57,1.98,2.29s1.49,1.38,2.29,1.98c2.08,1.54,4.41,2.66,6.89,3.3,1.65.43,3.37.65,5.12.65s3.46-.22,5.11-.65c1.65-.42,3.23-1.05,4.72-1.89,1.63-.91,3.14-2.04,4.49-3.39l9.04-9.04c3.82-3.82,5.92-8.9,5.93-14.31,0-5.4-2.11-10.49-5.93-14.3-3.83-3.83-8.9-5.93-14.3-5.93-5.41,0-10.49,2.11-14.31,5.93l-9.04,9.04c-1.35,1.35-2.48,2.86-3.39,4.49-1.36-.29-2.76-.49-4.17-.59-2.2-.16-4.39-.13-6.54.09,1.53-4.21,3.96-7.99,7.07-11.09h0s9.01-9.02,9.01-9.02h0c6-6,14.51-9.48,23.82-8.75,14.66,1.15,26.54,13.03,27.7,27.7.73,9.31-2.76,17.81-8.77,23.82h0Z"/>
  <path class="cls-1" d="M69.85,96.01l-9.02,9.02h0c-6,6-14.5,9.52-23.83,8.79-14.69-1.14-26.57-13.04-27.72-27.72-.72-9.32,2.79-17.83,8.8-23.83h0s9.02-9.02,9.02-9.02h0c3.09-3.08,6.85-5.52,11.04-7.04,1.68-.61,3.42-1.07,5.23-1.38,2.43-.41,4.96-.54,7.55-.34.91.07,1.8.18,2.67.34,1.67.28,3.29.7,4.84,1.25,8.64,3.04,15.55,9.95,18.59,18.59-1.24.33-2.52.49-3.85.5-3.04,0-5.94-.89-8.41-2.55-.61-.81-1.27-1.58-1.99-2.3-.72-.72-1.5-1.39-2.3-1.99-2.08-1.54-4.41-2.65-6.89-3.3-1.65-.43-3.37-.65-5.12-.65s-3.46.22-5.11.65c-1.65.42-3.24,1.06-4.72,1.89-1.63.89-3.13,2.03-4.48,3.38l-9.05,9.05c-3.82,3.82-5.92,8.9-5.93,14.31,0,5.4,2.11,10.49,5.93,14.3s8.9,5.93,14.3,5.93c5.41,0,10.49-2.11,14.31-5.93l9.05-9.05c1.35-1.35,2.49-2.86,3.38-4.48,1.38.29,2.79.48,4.2.59,2.19.17,4.38.13,6.53-.09-1.52,4.19-3.95,7.95-7.04,11.04h0Z"/>
</svg>