<!-- Generated by IcoMoon.io -->
<svg version="1.1" xmlns="http://www.w3.org/2000/svg" width="1024" height="1024" viewBox="0 0 1024 1024">
<path fill="#000" d="M904.829 252.63l-147.363 255.233c-23.283 40.251-74.734 54.061-115.028 30.778l-36.42-21.052 42.104-72.882c20.126 11.579 45.893 4.716 57.472-15.41l105.26-182.309c11.621-20.168 4.716-45.893-15.368-57.514l-145.89-84.208c-20.168-11.621-45.893-4.716-57.472 15.41l-105.26 182.309c-11.663 20.168-4.758 45.893 15.368 57.514l-42.104 72.882-36.42-21.052c-40.293-23.241-54.103-74.734-30.82-114.985l147.363-255.233c23.283-40.293 74.734-54.061 115.028-30.82l218.729 126.311c40.293 23.241 54.103 74.734 30.82 115.028zM406.74 694.298c-20.168-11.621-27.073-37.388-15.41-57.514l168.415-291.695c11.621-20.168 37.388-27.073 57.514-15.41s27.073 37.388 15.368 57.514l-168.415 291.695c-11.579 20.126-37.304 26.989-57.472 15.41zM375.92 579.313v0c-20.168-11.621-45.893-4.716-57.514 15.368l-105.26 182.309c-11.621 20.168-4.716 45.893 15.41 57.514l145.89 84.208c20.126 11.621 45.893 4.716 57.472-15.41l105.26-182.309c11.621-20.126 4.716-45.893-15.368-57.514v0l42.104-72.882 36.42 21.052c40.293 23.241 54.103 74.692 30.82 114.985l-147.363 255.233c-23.283 40.293-74.734 54.061-115.028 30.82l-218.771-126.311c-40.293-23.283-54.103-74.734-30.82-115.028l147.363-255.233c23.283-40.293 74.776-54.103 115.070-30.82l36.42 21.052-42.104 72.966z"></path>
</svg>
