<?xml version="1.0" encoding="UTF-8"?>
<svg id="_ÎÓÈ_1" data-name="—ÎÓÈ_1" xmlns="http://www.w3.org/2000/svg" viewBox="0 0 100 100">
  <defs>
    <style>
      .cls-1 {
        fill: #262626;
        stroke-width: 0px;
      }
    </style>
  </defs>
  <path class="cls-1" d="M55.73,74.63c-1.25-.04-2.5-.16-3.73-.34-.35-.05-.7-.11-1.05-.18l-10.34,10.74c-6.96,7.23-18.24,7.88-25.17,1.29-6.96-6.62-6.94-17.95.05-25.2l10.48-10.88,3.49-3.63c.54-.56,1.1-1.07,1.68-1.55,2.77-2.26,6.02-3.62,9.34-4.05.86-.11,1.73-.16,2.6-.15.8.01,1.59.08,2.38.2h0c3.34.51,6.53,1.99,9.1,4.47,2.34,2.25,3.88,5.04,4.62,8.02,2.21-.35,4.29-1.28,6.05-2.72.41-.33.8-.69,1.17-1.08l1.15-1.2c-1.28-3.67-3.4-7.07-6.35-9.92-2.95-2.84-6.43-4.83-10.15-5.97-1.25-.38-2.53-.67-3.83-.87-1.01-.15-2.03-.24-3.06-.28-3.84-.13-7.74.56-11.41,2.05-.51.21-1.02.43-1.52.67-.56.26-1.1.55-1.64.85-2.41,1.35-4.68,3.08-6.71,5.19l-13.97,14.51c-10.62,11.03-10.7,28.24-.17,38.36,10.49,10.08,27.89,9.17,38.47-1.82l13.8-14.34c.87-.9,1.66-1.84,2.39-2.82-2.54.51-5.12.72-7.68.64Z"/>
  <path class="cls-1" d="M53.06,8.77l-13.97,14.51c-.87.9-1.66,1.84-2.39,2.82,2.54-.51,5.12-.72,7.68-.64,1.23.04,2.48.15,3.72.34.35.05.71.11,1.06.18l10.48-10.88c6.98-7.25,18.3-7.71,25.18-1,6.85,6.68,6.63,17.97-.34,25.2l-10.34,10.74-3.49,3.63c-.54.56-1.1,1.07-1.68,1.55-2.77,2.26-6.02,3.62-9.34,4.05-.86.11-1.73.16-2.6.15-.8-.01-1.59-.08-2.38-.2-3.34-.51-6.53-1.99-9.11-4.47-2.34-2.25-3.88-5.04-4.62-8.02-2.21.34-4.29,1.28-6.05,2.72-.41.33-.8.69-1.17,1.08l-1.15,1.2c1.28,3.67,3.4,7.07,6.35,9.92,2.95,2.85,6.44,4.83,10.15,5.97,1.25.38,2.53.67,3.83.87,1.01.15,2.03.24,3.05.28,3.84.13,7.74-.56,11.41-2.05.51-.21,1.02-.43,1.52-.67.55-.26,1.1-.55,1.64-.85,2.41-1.35,4.68-3.08,6.71-5.19l13.8-14.34c10.58-10.99,10.84-28.41.36-38.51-10.51-10.13-27.71-9.4-38.33,1.62Z"/>
</svg>