<?xml version="1.0" encoding="UTF-8"?>
<svg id="_ÎÓÈ_1" data-name="—ÎÓÈ_1" xmlns="http://www.w3.org/2000/svg" viewBox="0 0 100 100">
  <defs>
    <style>
      .cls-1 {
        fill: #262626;
        stroke-width: 0px;
      }
    </style>
  </defs>
  <path class="cls-1" d="M73.15,51.66c-.55-.93-1.18-1.8-1.87-2.59-.22-.26-.45-.5-.68-.74l-6.48-6.6-1.61-1.64c-3.18-3.24-7.44-5.03-12-5.03s-8.62,1.71-11.78,4.81l-2.48,2.43c.19.4.41.77.68,1.11.14.18.28.33.41.46l4.88,4.97,2.71-2.66c1.49-1.47,3.48-2.27,5.58-2.27s4.18.85,5.69,2.38l1.61,1.64,6.48,6.6c.18.18.37.4.56.64.57.72,1.01,1.54,1.32,2.44.08.24.15.48.2.72.62,2.7-.19,5.51-2.18,7.46l-23.51,23.08c-1.49,1.47-3.48,2.27-5.58,2.28-2.16,0-4.18-.85-5.69-2.38l-8.09-8.24c-3.08-3.13-3.03-8.19.1-11.27l11.23-11.03-4.88-4.97c-.27-.27-.52-.55-.78-.84-.16-.19-.32-.37-.48-.57l-11.3,11.09c-6.62,6.5-6.72,17.17-.22,23.78l8.09,8.24c3.18,3.24,7.44,5.03,12,5.03h0c4.44,0,8.62-1.71,11.78-4.81l23.51-23.08c5.48-5.38,6.62-13.78,2.77-20.44,0,0,0,0,0-.01Z"/>
  <path class="cls-1" d="M85,13.27l-8.09-8.24c-3.18-3.24-7.45-5.03-12-5.03s-8.62,1.71-11.78,4.81l-23.51,23.08c-5.48,5.38-6.62,13.78-2.77,20.44,0,0,0,0,0,.01.55.93,1.18,1.8,1.86,2.59.22.26.45.5.68.74l6.48,6.6,1.61,1.64c3.18,3.24,7.44,5.03,12,5.03h0c4.44,0,8.62-1.71,11.78-4.81l2.48-2.43c-.19-.4-.41-.77-.68-1.11-.14-.18-.28-.33-.41-.46l-4.88-4.97-2.71,2.66c-1.5,1.47-3.48,2.27-5.58,2.27s-4.18-.85-5.69-2.38l-1.61-1.64-6.48-6.6c-.18-.19-.37-.4-.56-.64-.57-.72-1.01-1.54-1.32-2.44-.08-.24-.15-.48-.2-.72-.62-2.7.19-5.51,2.18-7.46l23.51-23.08c1.49-1.47,3.48-2.28,5.58-2.28s4.18.85,5.69,2.38l8.09,8.24c3.08,3.13,3.03,8.19-.1,11.27l-11.23,11.03,4.88,4.97c.27.27.52.55.78.84.16.19.32.37.48.57l11.3-11.09c3.2-3.14,4.99-7.35,5.03-11.85.04-4.5-1.66-8.74-4.81-11.94Z"/>
</svg>